<?xml version="1.0" encoding="UTF-8"?>
<svg id="_レイヤー_2" xmlns="http://www.w3.org/2000/svg" version="1.1" viewBox="0 0 178 177">
  <!-- Generator: Adobe Illustrator 29.6.1, SVG Export Plug-In . SVG Version: 2.1.1 Build 9)  -->
  <defs>
    <style>
      .st0 {
        fill: #f8f9f7;
      }

      .st1 {
        fill: #b9f4bf;
      }

      .st2 {
        fill: #e9f0e6;
      }

      .st3 {
        fill: #d4f4d6;
      }

      .st4 {
        fill: #e2f4e1;
      }

      .st5 {
        fill: #f1f5f0;
      }

      .st6 {
        fill: #fbf9fa;
      }

      .st7 {
        fill: #f4f8f1;
      }

      .st8 {
        fill: #f8fffa;
      }
    </style>
  </defs>
  <g id="_レイヤー_1-2">
    <g>
      <rect class="st6" width="178" height="177"/>
      <path class="st5" d="M7.19,15.84L.51,4.29c-.11-.19-.31-.29-.51-.29v12.73h6.68c.46,0,.74-.49.51-.88h0Z"/>
      <path class="st0" d="M11.12,16.72h13.36c.46,0,.74-.49.51-.88l-6.68-11.55c-.23-.39-.8-.39-1.02,0l-6.68,11.55c-.23.39.06.88.51.88h0Z"/>
      <path class="st0" d="M9.41,13.41L16.09,1.87c.23-.39-.06-.88-.51-.88H2.22c-.46,0-.74.49-.51.88l6.68,11.55c.23.39.8.39,1.02,0h0Z"/>
      <path class="st4" d="M26.19,13.41c.23.39.8.39,1.02,0l6.68-11.55c.23-.39-.06-.88-.51-.88h-13.36c-.46,0-.74.49-.51.88l6.68,11.55h0Z"/>
      <path class="st5" d="M28.92,16.72h13.36c.46,0,.74-.49.51-.88l-6.68-11.55c-.23-.39-.8-.39-1.02,0l-6.68,11.55c-.23.39.06.88.51.88Z"/>
      <path class="st7" d="M46.72,16.72h13.36c.46,0,.74-.49.51-.88l-6.68-11.55c-.23-.39-.8-.39-1.02,0l-6.68,11.55c-.23.39.06.88.51.88Z"/>
      <path class="st5" d="M43.99,13.41c.23.39.8.39,1.02,0l6.68-11.55c.23-.39-.06-.88-.51-.88h-13.36c-.46,0-.74.49-.51.88,0,0,6.68,11.55,6.68,11.55Z"/>
      <path class="st0" d="M61.79,13.41c.23.39.8.39,1.02,0l6.68-11.55c.23-.39-.06-.88-.51-.88h-13.36c-.46,0-.74.49-.51.88l6.68,11.55h0Z"/>
      <path class="st7" d="M64.52,16.72h13.36c.46,0,.74-.49.51-.88l-6.68-11.55c-.23-.39-.8-.39-1.02,0l-6.68,11.55c-.23.39.06.88.51.88Z"/>
      <path class="st0" d="M82.32,16.72h13.36c.46,0,.74-.49.51-.88l-6.68-11.55c-.23-.39-.8-.39-1.02,0l-6.68,11.55c-.23.39.06.88.51.88h0Z"/>
      <path class="st5" d="M79.59,13.41c.23.39.8.39,1.02,0l6.68-11.55c.23-.39-.06-.88-.51-.88h-13.36c-.46,0-.74.49-.51.88,0,0,6.68,11.55,6.68,11.55Z"/>
      <path class="st7" d="M97.39,13.41c.23.39.8.39,1.02,0l6.68-11.55c.23-.39-.06-.88-.51-.88h-13.36c-.46,0-.74.49-.51.88l6.68,11.55h0Z"/>
      <path class="st7" d="M7.19,33.54L.51,21.99c-.11-.2-.31-.29-.51-.29v12.73h6.68c.46,0,.74-.49.51-.88h0Z"/>
      <path class="st5" d="M17.29,21.99l-6.68,11.55c-.23.39.06.88.51.88h13.36c.46,0,.74-.49.51-.88l-6.68-11.55c-.23-.39-.8-.39-1.02,0h0Z"/>
      <path class="st0" d="M9.41,31.11l6.68-11.55c.23-.39-.06-.88-.51-.88H2.22c-.46,0-.74.49-.51.88l6.68,11.55c.23.39.8.39,1.02,0Z"/>
      <path class="st5" d="M33.38,18.68h-13.36c-.46,0-.74.49-.51.88l6.68,11.55c.23.39.8.39,1.02,0l6.68-11.55c.23-.39-.06-.88-.51-.88h0Z"/>
      <path class="st7" d="M35.09,21.99l-6.68,11.55c-.23.39.06.88.51.88h13.36c.46,0,.74-.49.51-.88l-6.68-11.55c-.23-.39-.8-.39-1.02,0h0Z"/>
      <path class="st7" d="M52.89,21.99l-6.68,11.55c-.23.39.06.88.51.88h13.36c.46,0,.74-.49.51-.88l-6.68-11.55c-.23-.39-.8-.39-1.02,0Z"/>
      <path class="st0" d="M51.18,18.68h-13.36c-.46,0-.74.49-.51.88l6.68,11.55c.23.39.8.39,1.02,0l6.68-11.55c.23-.39-.06-.88-.51-.88Z"/>
      <path class="st5" d="M68.98,18.68h-13.36c-.46,0-.74.49-.51.88l6.68,11.55c.23.39.8.39,1.02,0l6.68-11.55c.23-.39-.06-.88-.51-.88h0Z"/>
      <path class="st0" d="M70.69,21.99l-6.68,11.55c-.23.39.06.88.51.88h13.36c.46,0,.74-.49.51-.88l-6.68-11.55c-.23-.39-.8-.39-1.02,0Z"/>
      <path class="st7" d="M88.49,21.99l-6.68,11.55c-.23.39.06.88.51.88h13.36c.46,0,.74-.49.51-.88l-6.68-11.55c-.23-.39-.8-.39-1.02,0h0Z"/>
      <path class="st5" d="M86.78,18.68h-13.36c-.46,0-.74.49-.51.88l6.68,11.55c.23.39.8.39,1.02,0l6.68-11.55c.23-.39-.06-.88-.51-.88Z"/>
      <path class="st0" d="M104.58,18.68h-13.36c-.46,0-.74.49-.51.88l6.68,11.55c.23.39.8.39,1.02,0l6.68-11.55c.23-.39-.06-.88-.51-.88h0Z"/>
      <path class="st5" d="M7.19,51.24L.51,39.69c-.11-.2-.31-.29-.51-.29v12.73h6.68c.46,0,.74-.49.51-.88h0Z"/>
      <path class="st5" d="M10.98,52.12h13.36c.46,0,.74-.49.51-.88l-6.68-11.55c-.23-.39-.8-.39-1.02,0l-6.68,11.55c-.23.39.06.88.51.88Z"/>
      <path class="st7" d="M9.41,48.81l6.68-11.55c.23-.39-.06-.88-.51-.88H2.22c-.46,0-.74.49-.51.88l6.68,11.55c.23.39.8.39,1.02,0Z"/>
      <path class="st8" d="M33.38,36.38h-13.36c-.46,0-.74.49-.51.88l6.68,11.55c.23.39.8.39,1.02,0l6.68-11.55c.23-.39-.06-.88-.51-.88h0Z"/>
      <path class="st0" d="M35.09,39.69l-6.68,11.55c-.23.39.06.88.51.88h13.36c.46,0,.74-.49.51-.88l-6.68-11.55c-.23-.39-.8-.39-1.02,0h0Z"/>
      <path class="st5" d="M52.89,39.69l-6.68,11.55c-.23.39.06.88.51.88h13.36c.46,0,.74-.49.51-.88l-6.68-11.55c-.23-.39-.8-.39-1.02,0Z"/>
      <path class="st0" d="M51.18,36.38h-13.36c-.46,0-.74.49-.51.88l6.68,11.55c.23.39.8.39,1.02,0l6.68-11.55c.23-.39-.06-.88-.51-.88Z"/>
      <path class="st5" d="M68.98,36.38h-13.36c-.46,0-.74.49-.51.88l6.68,11.55c.23.39.8.39,1.02,0l6.68-11.55c.23-.39-.06-.88-.51-.88h0Z"/>
      <path class="st7" d="M70.69,39.69l-6.68,11.55c-.23.39.06.88.51.88h13.36c.46,0,.74-.49.51-.88l-6.68-11.55c-.23-.39-.8-.39-1.02,0Z"/>
      <path class="st7" d="M88.49,39.69l-6.68,11.55c-.23.39.06.88.51.88h13.36c.46,0,.74-.49.51-.88l-6.68-11.55c-.23-.39-.8-.39-1.02,0h0Z"/>
      <path class="st4" d="M86.78,36.38h-13.36c-.46,0-.74.49-.51.88l6.68,11.55c.23.39.8.39,1.02,0l6.68-11.55c.23-.39-.06-.88-.51-.88Z"/>
      <path class="st5" d="M104.58,36.38h-13.36c-.46,0-.74.49-.51.88l6.68,11.55c.23.39.8.39,1.02,0l6.68-11.55c.23-.39-.06-.88-.51-.88h0Z"/>
      <path class="st0" d="M7.19,68.94L.51,57.39c-.11-.2-.31-.29-.51-.29v12.73h6.68c.46,0,.74-.49.51-.88h0Z"/>
      <path class="st4" d="M11.12,69.82h13.36c.46,0,.74-.49.51-.88l-6.68-11.55c-.23-.39-.8-.39-1.02,0l-6.68,11.55c-.23.39.06.88.51.88h0Z"/>
      <path class="st7" d="M9.41,66.51l6.68-11.55c.23-.39-.06-.88-.51-.88H2.22c-.46,0-.74.49-.51.88l6.68,11.55c.23.39.8.39,1.02,0Z"/>
      <path class="st7" d="M19.51,54.96l6.68,11.55c.23.39.8.39,1.02,0l6.68-11.55c.23-.39-.06-.88-.51-.88h-13.36c-.46,0-.74.49-.51.88h0Z"/>
      <path class="st7" d="M35.09,57.39l-6.68,11.55c-.23.39.06.88.51.88h13.36c.46,0,.74-.49.51-.88l-6.68-11.55c-.23-.39-.8-.39-1.02,0h0Z"/>
      <path class="st1" d="M52.89,57.39l-6.68,11.55c-.23.39.06.88.51.88h13.36c.46,0,.74-.49.51-.88l-6.68-11.55c-.23-.39-.8-.39-1.02,0Z"/>
      <path class="st4" d="M51.18,54.08h-13.36c-.46,0-.74.49-.51.88l6.68,11.55c.23.39.8.39,1.02,0l6.68-11.55c.23-.39-.06-.88-.51-.88Z"/>
      <path class="st5" d="M68.98,54.08h-13.36c-.46,0-.74.49-.51.88l6.68,11.55c.23.39.8.39,1.02,0l6.68-11.55c.23-.39-.06-.88-.51-.88h0Z"/>
      <path class="st5" d="M70.69,57.39l-6.68,11.55c-.23.39.06.88.51.88h13.36c.46,0,.74-.49.51-.88l-6.68-11.55c-.23-.39-.8-.39-1.02,0Z"/>
      <path class="st7" d="M88.49,57.39l-6.68,11.55c-.23.39.06.88.51.88h13.36c.46,0,.74-.49.51-.88l-6.68-11.55c-.23-.39-.8-.39-1.02,0h0Z"/>
      <path class="st0" d="M86.78,54.08h-13.36c-.46,0-.74.49-.51.88l6.68,11.55c.23.39.8.39,1.02,0l6.68-11.55c.23-.39-.06-.88-.51-.88Z"/>
      <path class="st5" d="M104.58,54.08h-13.36c-.46,0-.74.49-.51.88l6.68,11.55c.23.39.8.39,1.02,0l6.68-11.55c.23-.39-.06-.88-.51-.88h0Z"/>
      <path class="st7" d="M7.19,86.64l-6.68-11.55c-.11-.2-.31-.29-.51-.29v12.73h6.68c.46,0,.74-.49.51-.88h0Z"/>
      <path class="st7" d="M11.12,87.52h13.36c.46,0,.74-.49.51-.88l-6.68-11.55c-.23-.39-.8-.39-1.02,0l-6.68,11.55c-.23.39.06.88.51.88h0Z"/>
      <path class="st5" d="M9.41,84.21l6.68-11.55c.23-.39-.06-.88-.51-.88H2.22c-.46,0-.74.49-.51.88l6.68,11.55c.23.39.8.39,1.02,0Z"/>
      <path class="st0" d="M19.51,72.66l6.68,11.55c.23.39.8.39,1.02,0l6.68-11.55c.23-.39-.06-.88-.51-.88h-13.36c-.46,0-.74.49-.51.88h0Z"/>
      <path class="st5" d="M28.92,87.52h13.36c.46,0,.74-.49.51-.88l-6.68-11.55c-.23-.39-.8-.39-1.02,0l-6.68,11.55c-.23.39.06.88.51.88Z"/>
      <path class="st0" d="M52.89,75.09l-6.68,11.55c-.23.39.06.88.51.88h13.36c.46,0,.74-.49.51-.88l-6.68-11.55c-.23-.39-.8-.39-1.02,0Z"/>
      <path class="st5" d="M51.18,71.78h-13.36c-.46,0-.74.49-.51.88l6.68,11.55c.23.39.8.39,1.02,0l6.68-11.55c.23-.39-.06-.88-.51-.88Z"/>
      <path class="st5" d="M68.98,71.78h-13.36c-.46,0-.74.49-.51.88l6.68,11.55c.23.39.8.39,1.02,0l6.68-11.55c.23-.39-.06-.88-.51-.88h0Z"/>
      <path class="st5" d="M70.69,75.09l-6.68,11.55c-.23.39.06.88.51.88h13.36c.46,0,.74-.49.51-.88l-6.68-11.55c-.23-.39-.8-.39-1.02,0Z"/>
      <path class="st7" d="M88.49,75.09l-6.68,11.55c-.23.39.06.88.51.88h13.36c.46,0,.74-.49.51-.88l-6.68-11.55c-.23-.39-.8-.39-1.02,0h0Z"/>
      <path class="st0" d="M86.78,71.78h-13.36c-.46,0-.74.49-.51.88l6.68,11.55c.23.39.8.39,1.02,0l6.68-11.55c.23-.39-.06-.88-.51-.88Z"/>
      <path class="st7" d="M104.58,71.78h-13.36c-.46,0-.74.49-.51.88l6.68,11.55c.23.39.8.39,1.02,0l6.68-11.55c.23-.39-.06-.88-.51-.88h0Z"/>
      <path class="st5" d="M7.19,104.34l-6.68-11.55c-.11-.2-.31-.29-.51-.29v12.73h6.68c.46,0,.74-.49.51-.88h0Z"/>
      <path class="st7" d="M11.12,105.22h13.36c.46,0,.74-.49.51-.88l-6.68-11.55c-.23-.39-.8-.39-1.02,0l-6.68,11.55c-.23.39.06.88.51.88h0Z"/>
      <path class="st0" d="M9.41,101.91l6.68-11.55c.23-.39-.06-.88-.51-.88H2.22c-.46,0-.74.49-.51.88l6.68,11.55c.23.39.8.39,1.02,0Z"/>
      <path class="st5" d="M19.51,90.36l6.68,11.55c.23.39.8.39,1.02,0l6.68-11.55c.23-.39-.06-.88-.51-.88h-13.36c-.46,0-.74.49-.51.88h0Z"/>
      <path class="st7" d="M28.92,105.22h13.36c.46,0,.74-.49.51-.88l-6.68-11.55c-.23-.39-.8-.39-1.02,0l-6.68,11.55c-.23.39.06.88.51.88Z"/>
      <path class="st5" d="M46.72,105.22h13.36c.46,0,.74-.49.51-.88l-6.68-11.55c-.23-.39-.8-.39-1.02,0l-6.68,11.55c-.23.39.06.88.51.88Z"/>
      <path class="st0" d="M37.31,90.36l6.68,11.55c.23.39.8.39,1.02,0l6.68-11.55c.23-.39-.06-.88-.51-.88h-13.36c-.46,0-.74.49-.51.88Z"/>
      <path class="st0" d="M62.81,101.91l6.68-11.55c.23-.39-.06-.88-.51-.88h-13.36c-.46,0-.74.49-.51.88l6.68,11.55c.23.39.8.39,1.02,0h0Z"/>
      <path class="st0" d="M64.52,105.22h13.36c.46,0,.74-.49.51-.88l-6.68-11.55c-.23-.39-.8-.39-1.02,0l-6.68,11.55c-.23.39.06.88.51.88Z"/>
      <path class="st5" d="M82.32,105.22h13.36c.46,0,.74-.49.51-.88l-6.68-11.55c-.23-.39-.8-.39-1.02,0l-6.68,11.55c-.23.39.06.88.51.88h0Z"/>
      <path class="st3" d="M80.61,101.91l6.68-11.55c.23-.39-.06-.88-.51-.88h-13.36c-.46,0-.74.49-.51.88l6.68,11.55c.23.39.8.39,1.02,0Z"/>
      <path class="st5" d="M98.41,101.91l6.68-11.55c.23-.39-.06-.88-.51-.88h-13.36c-.46,0-.74.49-.51.88l6.68,11.55c.23.39.8.39,1.02,0h0Z"/>
      <path class="st5" d="M7.19,122.04l-6.68-11.55c-.11-.2-.31-.29-.51-.29v12.73h6.68c.46,0,.74-.49.51-.88h0Z"/>
      <path class="st2" d="M11.12,122.92h13.36c.46,0,.74-.49.51-.88l-6.68-11.55c-.23-.39-.8-.39-1.02,0l-6.68,11.55c-.23.39.06.88.51.88h0Z"/>
      <path class="st7" d="M9.41,119.61l6.68-11.55c.23-.39-.06-.88-.51-.88H2.22c-.46,0-.74.49-.51.88l6.68,11.55c.23.39.8.39,1.02,0Z"/>
      <path class="st5" d="M19.51,108.06l6.68,11.55c.23.39.8.39,1.02,0l6.68-11.55c.23-.39-.06-.88-.51-.88h-13.36c-.46,0-.74.49-.51.88h0Z"/>
      <path class="st0" d="M28.92,122.92h13.36c.46,0,.74-.49.51-.88l-6.68-11.55c-.23-.39-.8-.39-1.02,0l-6.68,11.55c-.23.39.06.88.51.88Z"/>
      <path class="st7" d="M46.72,122.92h13.36c.46,0,.74-.49.51-.88l-6.68-11.55c-.23-.39-.8-.39-1.02,0l-6.68,11.55c-.23.39.06.88.51.88Z"/>
      <path class="st7" d="M45.01,119.61l6.68-11.55c.23-.39-.06-.88-.51-.88h-13.36c-.46,0-.74.49-.51.88l6.68,11.55c.23.39.8.39,1.02,0Z"/>
      <path class="st7" d="M62.81,119.61l6.68-11.55c.23-.39-.06-.88-.51-.88h-13.36c-.46,0-.74.49-.51.88l6.68,11.55c.23.39.8.39,1.02,0h0Z"/>
      <path class="st0" d="M64.52,122.92h13.36c.46,0,.74-.49.51-.88l-6.68-11.55c-.23-.39-.8-.39-1.02,0l-6.68,11.55c-.23.39.06.88.51.88Z"/>
      <path class="st0" d="M82.32,122.92h13.36c.46,0,.74-.49.51-.88l-6.68-11.55c-.23-.39-.8-.39-1.02,0l-6.68,11.55c-.23.39.06.88.51.88h0Z"/>
      <path class="st7" d="M80.61,119.61l6.68-11.55c.23-.39-.06-.88-.51-.88h-13.36c-.46,0-.74.49-.51.88l6.68,11.55c.23.39.8.39,1.02,0Z"/>
      <path class="st5" d="M98.41,119.61l6.68-11.55c.23-.39-.06-.88-.51-.88h-13.36c-.46,0-.74.49-.51.88l6.68,11.55c.23.39.8.39,1.02,0h0Z"/>
      <path class="st5" d="M7.19,139.74l-6.68-11.55c-.11-.2-.31-.29-.51-.29v12.73h6.68c.46,0,.74-.49.51-.88h0Z"/>
      <path class="st7" d="M11.12,140.62h13.36c.46,0,.74-.49.51-.88l-6.68-11.55c-.23-.39-.8-.39-1.02,0l-6.68,11.55c-.23.39.06.88.51.88h0Z"/>
      <path class="st5" d="M9.41,137.31l6.68-11.55c.23-.39-.06-.88-.51-.88H2.22c-.46,0-.74.49-.51.88l6.68,11.55c.23.39.8.39,1.02,0Z"/>
      <path class="st5" d="M19.51,125.76l6.68,11.55c.23.39.8.39,1.02,0l6.68-11.55c.23-.39-.06-.88-.51-.88h-13.36c-.46,0-.74.49-.51.88h0Z"/>
      <path class="st5" d="M28.92,140.62h13.36c.46,0,.74-.49.51-.88l-6.68-11.55c-.23-.39-.8-.39-1.02,0l-6.68,11.55c-.23.39.06.88.51.88Z"/>
      <path class="st5" d="M46.72,140.62h13.36c.46,0,.74-.49.51-.88l-6.68-11.55c-.23-.39-.8-.39-1.02,0l-6.68,11.55c-.23.39.06.88.51.88Z"/>
      <path class="st0" d="M45.01,137.31l6.68-11.55c.23-.39-.06-.88-.51-.88h-13.36c-.46,0-.74.49-.51.88l6.68,11.55c.23.39.8.39,1.02,0Z"/>
      <path class="st0" d="M62.81,137.31l6.68-11.55c.23-.39-.06-.88-.51-.88h-13.36c-.46,0-.74.49-.51.88l6.68,11.55c.23.39.8.39,1.02,0h0Z"/>
      <path class="st5" d="M64.52,140.62h13.36c.46,0,.74-.49.51-.88l-6.68-11.55c-.23-.39-.8-.39-1.02,0l-6.68,11.55c-.23.39.06.88.51.88Z"/>
      <path class="st5" d="M82.32,140.62h13.36c.46,0,.74-.49.51-.88l-6.68-11.55c-.23-.39-.8-.39-1.02,0l-6.68,11.55c-.23.39.06.88.51.88h0Z"/>
      <path class="st0" d="M80.61,137.31l6.68-11.55c.23-.39-.06-.88-.51-.88h-13.36c-.46,0-.74.49-.51.88l6.68,11.55c.23.39.8.39,1.02,0Z"/>
      <path class="st7" d="M98.41,137.31l6.68-11.55c.23-.39-.06-.88-.51-.88h-13.36c-.46,0-.74.49-.51.88l6.68,11.55c.23.39.8.39,1.02,0h0Z"/>
      <path class="st5" d="M100.12,16.72h13.36c.46,0,.74-.49.51-.88l-6.68-11.55c-.23-.39-.8-.39-1.02,0l-6.68,11.55c-.23.39.06.88.51.88h0Z"/>
      <path class="st5" d="M115.19,13.41c.23.39.8.39,1.02,0l6.68-11.55c.23-.39-.06-.88-.51-.88h-13.36c-.46,0-.74.49-.51.88l6.68,11.55h0Z"/>
      <path class="st7" d="M117.92,16.72h13.36c.46,0,.74-.49.51-.88l-6.68-11.55c-.23-.39-.8-.39-1.02,0l-6.68,11.55c-.23.39.06.88.51.88Z"/>
      <path class="st4" d="M135.72,16.72h13.36c.46,0,.74-.49.51-.88l-6.68-11.55c-.23-.39-.8-.39-1.02,0l-6.68,11.55c-.23.39.06.88.51.88Z"/>
      <path class="st8" d="M132.99,13.41c.23.39.8.39,1.02,0l6.68-11.55c.23-.39-.06-.88-.51-.88h-13.36c-.46,0-.74.49-.51.88l6.68,11.55Z"/>
      <path class="st5" d="M150.79,13.41c.23.39.8.39,1.02,0l6.68-11.55c.23-.39-.06-.88-.51-.88h-13.36c-.46,0-.74.49-.51.88l6.68,11.55Z"/>
      <path class="st0" d="M153.52,16.72h13.36c.46,0,.74-.49.51-.88l-6.68-11.55c-.23-.39-.8-.39-1.02,0l-6.68,11.55c-.23.39.06.88.51.88Z"/>
      <path class="st5" d="M170.81,15.84c-.23.39.06.88.51.88h6.68V4c-.2,0-.4.1-.51.29l-6.68,11.55Z"/>
      <path class="st7" d="M168.59,13.41c.23.39.8.39,1.02,0l6.68-11.55c.23-.39-.06-.88-.51-.88h-13.36c-.46,0-.74.49-.51.88l6.68,11.55Z"/>
      <path class="st5" d="M106.29,21.99l-6.68,11.55c-.23.39.06.88.51.88h13.36c.46,0,.74-.49.51-.88l-6.68-11.55c-.23-.39-.8-.39-1.02,0h0Z"/>
      <path class="st7" d="M122.38,18.68h-13.36c-.46,0-.74.49-.51.88l6.68,11.55c.23.39.8.39,1.02,0l6.68-11.55c.23-.39-.06-.88-.51-.88h0Z"/>
      <path class="st7" d="M124.09,21.99l-6.68,11.55c-.23.39.06.88.51.88h13.36c.46,0,.74-.49.51-.88l-6.68-11.55c-.23-.39-.8-.39-1.02,0Z"/>
      <path class="st7" d="M141.89,21.99l-6.68,11.55c-.23.39.06.88.51.88h13.36c.46,0,.74-.49.51-.88l-6.68-11.55c-.23-.39-.8-.39-1.02,0Z"/>
      <path class="st0" d="M140.18,18.68h-13.36c-.46,0-.74.49-.51.88l6.68,11.55c.23.39.8.39,1.02,0l6.68-11.55c.23-.39-.06-.88-.51-.88Z"/>
      <path class="st5" d="M157.98,18.68h-13.36c-.46,0-.74.49-.51.88l6.68,11.55c.23.39.8.39,1.02,0l6.68-11.55c.23-.39-.06-.88-.51-.88Z"/>
      <path class="st5" d="M167.39,33.54l-6.68-11.55c-.23-.39-.8-.39-1.02,0l-6.68,11.55c-.23.39.06.88.51.88h13.36c.46,0,.74-.49.51-.88Z"/>
      <path class="st7" d="M170.81,33.54c-.23.39.06.88.51.88h6.68v-12.73c-.2,0-.4.1-.51.29l-6.68,11.55h0Z"/>
      <path class="st5" d="M161.91,19.56l6.68,11.55c.23.39.8.39,1.02,0l6.68-11.55c.23-.39-.06-.88-.51-.88h-13.36c-.46,0-.74.49-.51.88Z"/>
      <path class="st0" d="M106.29,39.69l-6.68,11.55c-.23.39.06.88.51.88h13.36c.46,0,.74-.49.51-.88l-6.68-11.55c-.23-.39-.8-.39-1.02,0h0Z"/>
      <path class="st7" d="M122.38,36.38h-13.36c-.46,0-.74.49-.51.88l6.68,11.55c.23.39.8.39,1.02,0l6.68-11.55c.23-.39-.06-.88-.51-.88h0Z"/>
      <path class="st0" d="M124.09,39.69l-6.68,11.55c-.23.39.06.88.51.88h13.36c.46,0,.74-.49.51-.88l-6.68-11.55c-.23-.39-.8-.39-1.02,0Z"/>
      <path class="st5" d="M149.59,51.24l-6.68-11.55c-.23-.39-.8-.39-1.02,0l-6.68,11.55c-.23.39.06.88.51.88h13.36c.46,0,.74-.49.51-.88Z"/>
      <path class="st0" d="M140.18,36.38h-13.36c-.46,0-.74.49-.51.88l6.68,11.55c.23.39.8.39,1.02,0l6.68-11.55c.23-.39-.06-.88-.51-.88Z"/>
      <path class="st0" d="M157.98,36.38h-13.36c-.46,0-.74.49-.51.88l6.68,11.55c.23.39.8.39,1.02,0l6.68-11.55c.23-.39-.06-.88-.51-.88Z"/>
      <path class="st5" d="M167.39,51.24l-6.68-11.55c-.23-.39-.8-.39-1.02,0l-6.68,11.55c-.23.39.06.88.51.88h13.36c.46,0,.74-.49.51-.88Z"/>
      <path class="st5" d="M170.81,51.24c-.23.39.06.88.51.88h6.68v-12.73c-.2,0-.4.1-.51.29l-6.68,11.55h0Z"/>
      <path class="st5" d="M175.78,36.38h-13.36c-.46,0-.74.49-.51.88l6.68,11.55c.23.39.8.39,1.02,0l6.68-11.55c.23-.39-.06-.88-.51-.88Z"/>
      <path class="st0" d="M106.29,57.39l-6.68,11.55c-.23.39.06.88.51.88h13.36c.46,0,.74-.49.51-.88l-6.68-11.55c-.23-.39-.8-.39-1.02,0h0Z"/>
      <path class="st5" d="M122.38,54.08h-13.36c-.46,0-.74.49-.51.88l6.68,11.55c.23.39.8.39,1.02,0l6.68-11.55c.23-.39-.06-.88-.51-.88h0Z"/>
      <path class="st7" d="M124.09,57.39l-6.68,11.55c-.23.39.06.88.51.88h13.36c.46,0,.74-.49.51-.88l-6.68-11.55c-.23-.39-.8-.39-1.02,0Z"/>
      <path class="st0" d="M149.59,68.94l-6.68-11.55c-.23-.39-.8-.39-1.02,0l-6.68,11.55c-.23.39.06.88.51.88h13.36c.46,0,.74-.49.51-.88Z"/>
      <path class="st7" d="M140.18,54.08h-13.36c-.46,0-.74.49-.51.88l6.68,11.55c.23.39.8.39,1.02,0l6.68-11.55c.23-.39-.06-.88-.51-.88Z"/>
      <path class="st5" d="M157.98,54.08h-13.36c-.46,0-.74.49-.51.88l6.68,11.55c.23.39.8.39,1.02,0l6.68-11.55c.23-.39-.06-.88-.51-.88Z"/>
      <path class="st5" d="M167.39,68.94l-6.68-11.55c-.23-.39-.8-.39-1.02,0l-6.68,11.55c-.23.39.06.88.51.88h13.36c.46,0,.74-.49.51-.88Z"/>
      <path class="st0" d="M170.81,68.94c-.23.39.06.88.51.88h6.68v-12.73c-.2,0-.4.1-.51.29l-6.68,11.55h0Z"/>
      <path class="st5" d="M161.91,54.96l6.68,11.55c.23.39.8.39,1.02,0l6.68-11.55c.23-.39-.06-.88-.51-.88h-13.36c-.46,0-.74.49-.51.88Z"/>
      <path class="st2" d="M106.29,75.09l-6.68,11.55c-.23.39.06.88.51.88h13.36c.46,0,.74-.49.51-.88l-6.68-11.55c-.23-.39-.8-.39-1.02,0h0Z"/>
      <path class="st7" d="M122.38,71.78h-13.36c-.46,0-.74.49-.51.88l6.68,11.55c.23.39.8.39,1.02,0l6.68-11.55c.23-.39-.06-.88-.51-.88h0Z"/>
      <path class="st5" d="M117.92,87.52h13.36c.46,0,.74-.49.51-.88l-6.68-11.55c-.23-.39-.8-.39-1.02,0l-6.68,11.55c-.23.39.06.88.51.88Z"/>
      <path class="st5" d="M149.59,86.64l-6.68-11.55c-.23-.39-.8-.39-1.02,0l-6.68,11.55c-.23.39.06.88.51.88h13.36c.46,0,.74-.49.51-.88Z"/>
      <path class="st5" d="M140.18,71.78h-13.36c-.46,0-.74.49-.51.88l6.68,11.55c.23.39.8.39,1.02,0l6.68-11.55c.23-.39-.06-.88-.51-.88Z"/>
      <path class="st7" d="M157.98,71.78h-13.36c-.46,0-.74.49-.51.88l6.68,11.55c.23.39.8.39,1.02,0l6.68-11.55c.23-.39-.06-.88-.51-.88Z"/>
      <path class="st0" d="M167.39,86.64l-6.68-11.55c-.23-.39-.8-.39-1.02,0l-6.68,11.55c-.23.39.06.88.51.88h13.36c.46,0,.74-.49.51-.88Z"/>
      <path class="st7" d="M170.81,86.64c-.23.39.06.88.51.88h6.68v-12.73c-.2,0-.4.1-.51.29l-6.68,11.55h0Z"/>
      <path class="st0" d="M161.91,72.67l6.68,11.55c.23.39.8.39,1.02,0l6.68-11.55c.23-.39-.06-.88-.51-.88h-13.36c-.46,0-.74.49-.51.88Z"/>
      <path class="st7" d="M100.12,105.22h13.36c.46,0,.74-.49.51-.88l-6.68-11.55c-.23-.39-.8-.39-1.02,0l-6.68,11.55c-.23.39.06.88.51.88h0Z"/>
      <path class="st0" d="M116.21,101.91l6.68-11.55c.23-.39-.06-.88-.51-.88h-13.36c-.46,0-.74.49-.51.88l6.68,11.55c.23.39.8.39,1.02,0h0Z"/>
      <path class="st5" d="M117.92,105.22h13.36c.46,0,.74-.49.51-.88l-6.68-11.55c-.23-.39-.8-.39-1.02,0l-6.68,11.55c-.23.39.06.88.51.88Z"/>
      <path class="st5" d="M149.59,104.34l-6.68-11.55c-.23-.39-.8-.39-1.02,0l-6.68,11.55c-.23.39.06.88.51.88h13.36c.46,0,.74-.49.51-.88Z"/>
      <path class="st0" d="M134.01,101.91l6.68-11.55c.23-.39-.06-.88-.51-.88h-13.36c-.46,0-.74.49-.51.88l6.68,11.55c.23.39.8.39,1.02,0Z"/>
      <path class="st7" d="M157.98,89.48h-13.36c-.46,0-.74.49-.51.88l6.68,11.55c.23.39.8.39,1.02,0l6.68-11.55c.23-.39-.06-.88-.51-.88Z"/>
      <path class="st5" d="M167.39,104.34l-6.68-11.55c-.23-.39-.8-.39-1.02,0l-6.68,11.55c-.23.39.06.88.51.88h13.36c.46,0,.74-.49.51-.88Z"/>
      <path class="st5" d="M170.81,104.34c-.23.39.06.88.51.88h6.68v-12.73c-.2,0-.4.1-.51.29l-6.68,11.55h0Z"/>
      <path class="st5" d="M161.91,90.36l6.68,11.55c.23.39.8.39,1.02,0l6.68-11.55c.23-.39-.06-.88-.51-.88h-13.36c-.46,0-.74.49-.51.88Z"/>
      <path class="st7" d="M100.12,122.92h13.36c.46,0,.74-.49.51-.88l-6.68-11.55c-.23-.39-.8-.39-1.02,0l-6.68,11.55c-.23.39.06.88.51.88h0Z"/>
      <path class="st8" d="M116.21,119.61l6.68-11.55c.23-.39-.06-.88-.51-.88h-13.36c-.46,0-.74.49-.51.88l6.68,11.55c.23.39.8.39,1.02,0h0Z"/>
      <path class="st7" d="M117.92,122.92h13.36c.46,0,.74-.49.51-.88l-6.68-11.55c-.23-.39-.8-.39-1.02,0l-6.68,11.55c-.23.39.06.88.51.88Z"/>
      <path class="st7" d="M135.72,122.92h13.36c.46,0,.74-.49.51-.88l-6.68-11.55c-.23-.39-.8-.39-1.02,0l-6.68,11.55c-.23.39.06.88.51.88Z"/>
      <path class="st0" d="M134.01,119.61l6.68-11.55c.23-.39-.06-.88-.51-.88h-13.36c-.46,0-.74.49-.51.88l6.68,11.55c.23.39.8.39,1.02,0Z"/>
      <path class="st4" d="M157.98,107.18h-13.36c-.46,0-.74.49-.51.88l6.68,11.55c.23.39.8.39,1.02,0l6.68-11.55c.23-.39-.06-.88-.51-.88Z"/>
      <path class="st0" d="M167.39,122.04l-6.68-11.55c-.23-.39-.8-.39-1.02,0l-6.68,11.55c-.23.39.06.88.51.88h13.36c.46,0,.74-.49.51-.88Z"/>
      <path class="st5" d="M170.81,122.04c-.23.39.06.88.51.88h6.68v-12.73c-.2,0-.4.1-.51.29l-6.68,11.55h0Z"/>
      <path class="st7" d="M161.91,108.07l6.68,11.55c.23.39.8.39,1.02,0l6.68-11.55c.23-.39-.06-.88-.51-.88h-13.36c-.46,0-.74.49-.51.88Z"/>
      <path class="st7" d="M100.12,140.62h13.36c.46,0,.74-.49.51-.88l-6.68-11.55c-.23-.39-.8-.39-1.02,0l-6.68,11.55c-.23.39.06.88.51.88h0Z"/>
      <path class="st0" d="M116.21,137.31l6.68-11.55c.23-.39-.06-.88-.51-.88h-13.36c-.46,0-.74.49-.51.88l6.68,11.55c.23.39.8.39,1.02,0h0Z"/>
      <path class="st5" d="M117.92,140.62h13.36c.46,0,.74-.49.51-.88l-6.68-11.55c-.23-.39-.8-.39-1.02,0l-6.68,11.55c-.23.39.06.88.51.88Z"/>
      <path class="st7" d="M135.72,140.62h13.36c.46,0,.74-.49.51-.88l-6.68-11.55c-.23-.39-.8-.39-1.02,0l-6.68,11.55c-.23.39.06.88.51.88Z"/>
      <path class="st5" d="M134.01,137.31l6.68-11.55c.23-.39-.06-.88-.51-.88h-13.36c-.46,0-.74.49-.51.88l6.68,11.55c.23.39.8.39,1.02,0Z"/>
      <path class="st0" d="M151.81,137.31l6.68-11.55c.23-.39-.06-.88-.51-.88h-13.36c-.46,0-.74.49-.51.88l6.68,11.55c.23.39.8.39,1.02,0Z"/>
      <path class="st7" d="M167.39,139.74l-6.68-11.55c-.23-.39-.8-.39-1.02,0l-6.68,11.55c-.23.39.06.88.51.88h13.36c.46,0,.74-.49.51-.88Z"/>
      <path class="st5" d="M170.81,139.74c-.23.39.06.88.51.88h6.68v-12.73c-.2,0-.4.1-.51.29l-6.68,11.55h0Z"/>
      <path class="st5" d="M161.91,125.76l6.68,11.55c.23.39.8.39,1.02,0l6.68-11.55c.23-.39-.06-.88-.51-.88h-13.36c-.46,0-.74.49-.51.88Z"/>
      <path class="st2" d="M7.19,157.44l-6.68-11.55c-.11-.2-.31-.29-.51-.29v12.73h6.68c.46,0,.74-.49.51-.88h0Z"/>
      <path class="st5" d="M11.12,158.32h13.36c.46,0,.74-.49.51-.88l-6.68-11.55c-.23-.39-.8-.39-1.02,0l-6.68,11.55c-.23.39.06.88.51.88h0Z"/>
      <path class="st0" d="M9.41,155.01l6.68-11.55c.23-.39-.06-.88-.51-.88H2.22c-.46,0-.74.49-.51.88l6.68,11.55c.23.39.8.39,1.02,0Z"/>
      <path class="st0" d="M27.21,155.01l6.68-11.55c.23-.39-.06-.88-.51-.88h-13.36c-.46,0-.74.49-.51.88l6.68,11.55c.23.39.8.39,1.02,0Z"/>
      <path class="st7" d="M28.92,158.32h13.36c.46,0,.74-.49.51-.88l-6.68-11.55c-.23-.39-.8-.39-1.02,0l-6.68,11.55c-.23.39.06.88.51.88Z"/>
      <path class="st8" d="M46.72,158.32h13.36c.46,0,.74-.49.51-.88l-6.68-11.55c-.23-.39-.8-.39-1.02,0l-6.68,11.55c-.23.39.06.88.51.88Z"/>
      <path class="st7" d="M45.01,155.01l6.68-11.55c.23-.39-.06-.88-.51-.88h-13.36c-.46,0-.74.49-.51.88l6.68,11.55c.23.39.8.39,1.02,0Z"/>
      <path class="st5" d="M62.81,155.01l6.68-11.55c.23-.39-.06-.88-.51-.88h-13.36c-.46,0-.74.49-.51.88l6.68,11.55c.23.39.8.39,1.02,0h0Z"/>
      <path class="st5" d="M64.52,158.32h13.36c.46,0,.74-.49.51-.88l-6.68-11.55c-.23-.39-.8-.39-1.02,0l-6.68,11.55c-.23.39.06.88.51.88Z"/>
      <path class="st2" d="M82.32,158.32h13.36c.46,0,.74-.49.51-.88l-6.68-11.55c-.23-.39-.8-.39-1.02,0l-6.68,11.55c-.23.39.06.88.51.88h0Z"/>
      <path class="st7" d="M80.61,155.01l6.68-11.55c.23-.39-.06-.88-.51-.88h-13.36c-.46,0-.74.49-.51.88l6.68,11.55c.23.39.8.39,1.02,0Z"/>
      <path class="st5" d="M98.41,155.01l6.68-11.55c.23-.39-.06-.88-.51-.88h-13.36c-.46,0-.74.49-.51.88l6.68,11.55c.23.39.8.39,1.02,0h0Z"/>
      <path class="st5" d="M7.19,175.14l-6.68-11.55c-.11-.2-.31-.29-.51-.29v12.73h6.68c.46,0,.74-.49.51-.88h0Z"/>
      <path class="st5" d="M18.31,163.59c-.23-.39-.8-.39-1.02,0l-6.68,11.55c-.23.39.06.88.51.88h13.36c.46,0,.74-.49.51-.88l-6.68-11.55h0Z"/>
      <path class="st2" d="M15.58,160.28H2.22c-.46,0-.74.49-.51.88l6.68,11.55c.23.39.8.39,1.02,0l6.68-11.55c.23-.39-.06-.88-.51-.88h0Z"/>
      <path class="st0" d="M33.38,160.28h-13.36c-.46,0-.74.49-.51.88l6.68,11.55c.23.39.8.39,1.02,0l6.68-11.55c.23-.39-.06-.88-.51-.88h0Z"/>
      <path class="st7" d="M36.11,163.59c-.23-.39-.8-.39-1.02,0l-6.68,11.55c-.23.39.06.88.51.88h13.36c.46,0,.74-.49.51-.88l-6.68-11.55h0Z"/>
      <path class="st0" d="M53.91,163.59c-.23-.39-.8-.39-1.02,0l-6.68,11.55c-.23.39.06.88.51.88h13.36c.46,0,.74-.49.51-.88,0,0-6.68-11.55-6.68-11.55Z"/>
      <path class="st5" d="M51.18,160.28h-13.36c-.46,0-.74.49-.51.88l6.68,11.55c.23.39.8.39,1.02,0l6.68-11.55c.23-.39-.06-.88-.51-.88Z"/>
      <path class="st7" d="M68.98,160.28h-13.36c-.46,0-.74.49-.51.88l6.68,11.55c.23.39.8.39,1.02,0l6.68-11.55c.23-.39-.06-.88-.51-.88h0Z"/>
      <path class="st0" d="M71.71,163.59c-.23-.39-.8-.39-1.02,0l-6.68,11.55c-.23.39.06.88.51.88h13.36c.46,0,.74-.49.51-.88,0,0-6.68-11.55-6.68-11.55Z"/>
      <path class="st7" d="M89.51,163.59c-.23-.39-.8-.39-1.02,0l-6.68,11.55c-.23.39.06.88.51.88h13.36c.46,0,.74-.49.51-.88l-6.68-11.55h0Z"/>
      <path class="st5" d="M86.78,160.28h-13.36c-.46,0-.74.49-.51.88l6.68,11.55c.23.39.8.39,1.02,0l6.68-11.55c.23-.39-.06-.88-.51-.88Z"/>
      <path class="st7" d="M104.58,160.28h-13.36c-.46,0-.74.49-.51.88l6.68,11.55c.23.39.8.39,1.02,0l6.68-11.55c.23-.39-.06-.88-.51-.88h0Z"/>
      <path class="st7" d="M100.12,158.32h13.36c.46,0,.74-.49.51-.88l-6.68-11.55c-.23-.39-.8-.39-1.02,0l-6.68,11.55c-.23.39.06.88.51.88h0Z"/>
      <path class="st5" d="M116.21,155.01l6.68-11.55c.23-.39-.06-.88-.51-.88h-13.36c-.46,0-.74.49-.51.88l6.68,11.55c.23.39.8.39,1.02,0h0Z"/>
      <path class="st0" d="M117.92,158.32h13.36c.46,0,.74-.49.51-.88l-6.68-11.55c-.23-.39-.8-.39-1.02,0l-6.68,11.55c-.23.39.06.88.51.88Z"/>
      <path class="st3" d="M135.72,158.32h13.36c.46,0,.74-.49.51-.88l-6.68-11.55c-.23-.39-.8-.39-1.02,0l-6.68,11.55c-.23.39.06.88.51.88Z"/>
      <path class="st0" d="M134.01,155.01l6.68-11.55c.23-.39-.06-.88-.51-.88h-13.36c-.46,0-.74.49-.51.88l6.68,11.55c.23.39.8.39,1.02,0Z"/>
      <path class="st5" d="M151.81,155.01l6.68-11.55c.23-.39-.06-.88-.51-.88h-13.36c-.46,0-.74.49-.51.88l6.68,11.55c.23.39.8.39,1.02,0Z"/>
      <path class="st0" d="M153.52,158.32h13.36c.46,0,.74-.49.51-.88l-6.68-11.55c-.23-.39-.8-.39-1.02,0l-6.68,11.55c-.23.39.06.88.51.88Z"/>
      <path class="st2" d="M170.81,157.44c-.23.39.06.88.51.88h6.68v-12.73c-.2,0-.4.1-.51.29l-6.68,11.55h0Z"/>
      <path class="st5" d="M161.91,143.47l6.68,11.55c.23.39.8.39,1.02,0l6.68-11.55c.23-.39-.06-.88-.51-.88h-13.36c-.46,0-.74.49-.51.88Z"/>
      <path class="st0" d="M107.31,163.59c-.23-.39-.8-.39-1.02,0l-6.68,11.55c-.23.39.06.88.51.88h13.36c.46,0,.74-.49.51-.88l-6.68-11.55h0Z"/>
      <path class="st7" d="M122.38,160.28h-13.36c-.46,0-.74.49-.51.88l6.68,11.55c.23.39.8.39,1.02,0l6.68-11.55c.23-.39-.06-.88-.51-.88h0Z"/>
      <path class="st0" d="M125.11,163.59c-.23-.39-.8-.39-1.02,0l-6.68,11.55c-.23.39.06.88.51.88h13.36c.46,0,.74-.49.51-.88,0,0-6.68-11.55-6.68-11.55Z"/>
      <path class="st0" d="M142.91,163.59c-.23-.39-.8-.39-1.02,0l-6.68,11.55c-.23.39.06.88.51.88h13.36c.46,0,.74-.49.51-.88l-6.68-11.55Z"/>
      <path class="st5" d="M140.18,160.28h-13.36c-.46,0-.74.49-.51.88l6.68,11.55c.23.39.8.39,1.02,0l6.68-11.55c.23-.39-.06-.88-.51-.88Z"/>
      <path class="st0" d="M157.98,160.28h-13.36c-.46,0-.74.49-.51.88l6.68,11.55c.23.39.8.39,1.02,0l6.68-11.55c.23-.39-.06-.88-.51-.88Z"/>
      <path class="st7" d="M160.71,163.59c-.23-.39-.8-.39-1.02,0l-6.68,11.55c-.23.39.06.88.51.88h13.36c.46,0,.74-.49.51-.88l-6.68-11.55Z"/>
      <path class="st5" d="M170.81,175.14c-.23.39.06.88.51.88h6.68v-12.73c-.2,0-.4.1-.51.29l-6.68,11.55h0Z"/>
      <path class="st5" d="M161.91,161.16l6.68,11.55c.23.39.8.39,1.02,0l6.68-11.55c.23-.39-.06-.88-.51-.88h-13.36c-.46,0-.74.49-.51.88Z"/>
    </g>
  </g>
</svg>